# xmcd
#
# Track frame offsets:
#	150
#	16984
#	30973
#	48107
#	66500
#	90206
#	106536
#	119922
#	141164
#	160742
#	178504
#	201456
#	220809
#	250217
#
# Disc length: 3593 seconds
#
# Revision: 1
# Processed by: cddbd v1.4PL0 Copyright (c) Steve Scherf et al.
# Submitted via: CDmax 2.0
#
DISCID=b90e070e
DTITLE=Robert Cray - Mix Baltar
DYEAR=1900
DGENRE=Blues
TTITLE0=Baby Lee - GOMEROSIS
TTITLE1=Cry For Me Baby - Shoulda Been Home
TTITLE2=Don't Be Afraid Of The Dark - Hot Cuts
TTITLE3=Fantasized - Strong Persuader
TTITLE4=He Don't Live Here Anymore - I Was Warned
TTITLE5=I Guess I Showed Her
TTITLE6=More Than I Can Stand - Strong Persuader
TTITLE7=Mr. Lucky - GOMEROSIS
TTITLE8=New Blood - Strong Persuader
TTITLE9=Nothin But A Woman
TTITLE10=Porch Light - False Accusations
TTITLE11=Right Next Door
TTITLE12=Already Gone - Shoulda Been Home
TTITLE13=Strong Persuader
EXTD=
EXTT0=
EXTT1=
EXTT2=
EXTT3=
EXTT4=
EXTT5=
EXTT6=
EXTT7=
EXTT8=
EXTT9=
EXTT10=
EXTT11=
EXTT12=
EXTT13=
PLAYORDER=
